<svg xmlns="http://www.w3.org/2000/svg" xmlns:xlink="http://www.w3.org/1999/xlink" preserveAspectRatio="xMidYMid" width="64" height="64" viewBox="0 0 64 64">
  <defs>
    <style>

      .cls-3 {
        fill: #c2c8cc;
        opacity: 0.3;
      }

      .cls-4 {
        fill: #000000;
        opacity: 0.1;
      }

      .cls-5 {
        fill: #6cd97e;
      }
    </style>
  </defs>
  <g id="icn-galileosvg">
    <path d="M32.000,64.000 C14.327,64.000 0.000,49.673 0.000,32.000 C0.000,14.327 14.327,0.000 32.000,0.000 C49.673,0.000 64.000,14.327 64.000,32.000 C64.000,49.673 49.673,64.000 32.000,64.000 ZM32.000,2.000 C15.432,2.000 2.000,15.432 2.000,32.000 C2.000,48.569 15.432,62.000 32.000,62.000 C48.569,62.000 62.000,48.569 62.000,32.000 C62.000,15.432 48.569,2.000 32.000,2.000 Z" id="path-1" class="cls-3" fill-rule="evenodd"/>
    <circle id="circle-1" class="cls-4" cx="32" cy="32" r="31"/>
    <path d="M47.157,32.618 C47.157,32.618 47.166,32.627 47.166,32.627 C47.166,32.627 45.313,34.482 45.313,34.482 C42.936,36.863 37.566,33.403 33.065,28.894 C28.564,24.386 25.200,18.792 27.485,16.627 C27.485,16.627 29.337,14.772 29.337,14.772 C29.337,14.772 29.352,14.786 29.352,14.786 C31.683,12.957 36.656,16.536 41.030,20.916 C45.412,25.305 49.192,30.205 47.157,32.618 ZM39.733,22.215 C36.050,18.526 31.637,15.436 30.819,16.256 C30.001,17.076 33.087,21.495 36.770,25.183 C40.452,28.872 44.866,31.962 45.684,31.142 C46.502,30.323 43.416,25.904 39.733,22.215 ZM41.144,35.645 C41.144,35.645 31.027,43.180 31.027,43.180 C31.027,43.180 31.020,43.173 31.020,43.173 C28.862,45.178 25.546,43.256 22.321,40.026 C19.100,36.799 17.273,33.303 19.178,31.312 C19.178,31.312 19.172,31.306 19.172,31.306 C19.172,31.306 26.413,21.085 26.413,21.085 C26.824,23.414 28.835,26.884 31.953,30.007 C35.243,33.302 38.760,35.453 41.144,35.645 ZM18.486,37.144 C19.285,38.312 20.171,39.728 21.395,40.954 C22.523,42.083 23.821,42.906 24.884,43.692 C24.884,43.692 20.284,46.148 20.284,46.148 C20.284,46.148 20.275,46.140 20.275,46.140 C19.594,46.641 18.488,45.834 17.320,44.664 C16.156,43.498 15.375,42.339 15.845,41.703 C15.845,41.703 15.838,41.696 15.838,41.696 C15.838,41.696 18.486,37.144 18.486,37.144 Z" id="path-2" class="cls-5" fill-rule="evenodd"/>
  </g>
</svg>
